<svg width="21" height="21" viewBox="0 0 21 21" fill="none" xmlns="http://www.w3.org/2000/svg">
<path d="M3.9375 13.7813V13.125H2.625V13.7813C2.625 14.9996 3.10898 16.168 3.97048 17.0295C4.83197 17.891 6.00041 18.375 7.21875 18.375H9.1875V17.0625H7.21875C6.34851 17.0625 5.51391 16.7168 4.89856 16.1014C4.2832 15.4861 3.9375 14.6515 3.9375 13.7813ZM15.75 7.21875V7.875H17.0625V7.21875C17.0625 6.00041 16.5785 4.83197 15.717 3.97048C14.8555 3.10898 13.6871 2.625 12.4688 2.625H10.5V3.9375H12.4688C12.8996 3.9375 13.3263 4.02237 13.7244 4.18727C14.1225 4.35217 14.4843 4.59386 14.7889 4.89856C15.0936 5.20325 15.3353 5.56497 15.5002 5.96307C15.6651 6.36117 15.75 6.78785 15.75 7.21875ZM7.21875 7.21875H3.28125C2.75911 7.21875 2.25835 7.42617 1.88913 7.79538C1.51992 8.1646 1.3125 8.66536 1.3125 9.1875V10.5H2.625V9.1875C2.625 9.01345 2.69414 8.84653 2.81721 8.72346C2.94028 8.60039 3.1072 8.53125 3.28125 8.53125H7.21875C7.3928 8.53125 7.55972 8.60039 7.68279 8.72346C7.80586 8.84653 7.875 9.01345 7.875 9.1875V10.5H9.1875V9.1875C9.1875 8.66536 8.98008 8.1646 8.61087 7.79538C8.24165 7.42617 7.74089 7.21875 7.21875 7.21875ZM5.25 6.5625C5.76918 6.5625 6.27669 6.40855 6.70837 6.12011C7.14005 5.83167 7.4765 5.4217 7.67518 4.94205C7.87386 4.46239 7.92585 3.93459 7.82456 3.42539C7.72328 2.91619 7.47327 2.44846 7.10616 2.08135C6.73904 1.71423 6.27131 1.46423 5.76211 1.36294C5.25291 1.26165 4.72511 1.31364 4.24546 1.51232C3.7658 1.711 3.35583 2.04745 3.06739 2.47913C2.77895 2.91081 2.625 3.41833 2.625 3.9375C2.625 4.63369 2.90156 5.30137 3.39384 5.79366C3.88613 6.28594 4.55381 6.5625 5.25 6.5625ZM5.25 2.625C5.50959 2.625 5.76335 2.70198 5.97919 2.8462C6.19503 2.99042 6.36325 3.1954 6.46259 3.43523C6.56193 3.67506 6.58792 3.93896 6.53728 4.19356C6.48664 4.44816 6.36163 4.68202 6.17808 4.86558C5.99452 5.04914 5.76066 5.17414 5.50606 5.22478C5.25146 5.27543 4.98756 5.24943 4.74773 5.15009C4.5079 5.05075 4.30292 4.88253 4.1587 4.66669C4.01448 4.45085 3.9375 4.19709 3.9375 3.9375C3.9375 3.5894 4.07578 3.25556 4.32192 3.00942C4.56806 2.76328 4.9019 2.625 5.25 2.625ZM17.7188 16.4063H13.7812C13.2591 16.4063 12.7583 16.6137 12.3891 16.9829C12.0199 17.3521 11.8125 17.8529 11.8125 18.375V19.6875H13.125V18.375C13.125 18.201 13.1941 18.034 13.3172 17.911C13.4403 17.7879 13.6072 17.7188 13.7812 17.7188H17.7188C17.8928 17.7188 18.0597 17.7879 18.1828 17.911C18.3059 18.034 18.375 18.201 18.375 18.375V19.6875H19.6875V18.375C19.6875 17.8529 19.4801 17.3521 19.1109 16.9829C18.7417 16.6137 18.2409 16.4063 17.7188 16.4063ZM13.125 13.125C13.125 13.6442 13.279 14.1517 13.5674 14.5834C13.8558 15.0151 14.2658 15.3515 14.7455 15.5502C15.2251 15.7489 15.7529 15.8008 16.2621 15.6996C16.7713 15.5983 17.239 15.3483 17.6062 14.9812C17.9733 14.614 18.2233 14.1463 18.3246 13.6371C18.4258 13.1279 18.3739 12.6001 18.1752 12.1205C17.9765 11.6408 17.6401 11.2308 17.2084 10.9424C16.7767 10.654 16.2692 10.5 15.75 10.5C15.0538 10.5 14.3861 10.7766 13.8938 11.2688C13.4016 11.7611 13.125 12.4288 13.125 13.125ZM17.0625 13.125C17.0625 13.3846 16.9855 13.6383 16.8413 13.8542C16.6971 14.07 16.4921 14.2383 16.2523 14.3376C16.0124 14.4369 15.7485 14.4629 15.4939 14.4123C15.2393 14.3616 15.0055 14.2366 14.8219 14.0531C14.6384 13.8695 14.5134 13.6357 14.4627 13.3811C14.4121 13.1265 14.4381 12.8626 14.5374 12.6227C14.6367 12.3829 14.805 12.1779 15.0208 12.0337C15.2367 11.8895 15.4904 11.8125 15.75 11.8125C16.0981 11.8125 16.4319 11.9508 16.6781 12.1969C16.9242 12.4431 17.0625 12.7769 17.0625 13.125Z" fill="white"/>
</svg>
