<svg width="19" height="19" viewBox="0 0 19 19" fill="none" xmlns="http://www.w3.org/2000/svg">
<path d="M9.5 2.375C8.56433 2.375 7.63783 2.55929 6.77338 2.91736C5.90894 3.27542 5.12348 3.80025 4.46186 4.46186C3.80025 5.12348 3.27542 5.90894 2.91736 6.77338C2.55929 7.63783 2.375 8.56433 2.375 9.5C2.375 10.4357 2.55929 11.3622 2.91736 12.2266C3.27542 13.0911 3.80025 13.8765 4.46186 14.5381C5.12348 15.1998 5.90894 15.7246 6.77338 16.0826C7.63783 16.4407 8.56433 16.625 9.5 16.625C11.3897 16.625 13.2019 15.8743 14.5381 14.5381C15.8743 13.2019 16.625 11.3897 16.625 9.5C16.625 7.61033 15.8743 5.79806 14.5381 4.46186C13.2019 3.12567 11.3897 2.375 9.5 2.375ZM9.5 1.1875C11.7046 1.1875 13.8189 2.06328 15.3778 3.62217C16.9367 5.18107 17.8125 7.29539 17.8125 9.5C17.8125 11.7046 16.9367 13.8189 15.3778 15.3778C13.8189 16.9367 11.7046 17.8125 9.5 17.8125C7.29539 17.8125 5.18107 16.9367 3.62217 15.3778C2.06328 13.8189 1.1875 11.7046 1.1875 9.5C1.1875 7.29539 2.06328 5.18107 3.62217 3.62217C5.18107 2.06328 7.29539 1.1875 9.5 1.1875Z" fill="white"/>
<path d="M11.875 5.34375C12.6667 5.34375 13.0625 5.73958 13.0625 6.53125C13.0625 7.32292 12.6667 7.71875 11.875 7.71875C11.0834 7.71875 10.6875 7.32292 10.6875 6.53125C10.6875 5.73958 11.0834 5.34375 11.875 5.34375ZM3.9829 14.6704L3.14215 13.8296L6.58709 10.3859C6.88527 10.0876 7.27962 9.90474 7.69997 9.86995C8.12031 9.83516 8.53936 9.95065 8.88253 10.1959L11.4475 12.027C11.5572 12.1051 11.6901 12.1437 11.8245 12.1364C11.9589 12.129 12.0869 12.0762 12.1873 11.9866L16.8233 7.8375L17.6142 8.72338L12.9794 12.8713C12.6779 13.1412 12.2934 13.3003 11.8894 13.3226C11.4853 13.3448 11.0857 13.2288 10.7564 12.9936L8.1914 11.1613C8.07706 11.0801 7.93765 11.042 7.79789 11.0537C7.65813 11.0655 7.52704 11.1263 7.42784 11.2254L3.9829 14.6692V14.6704Z" fill="white"/>
</svg>
