<svg width="51" height="36" viewBox="0 0 51 36" fill="none" xmlns="http://www.w3.org/2000/svg">
<path fill-rule="evenodd" clip-rule="evenodd" d="M30 0H9C6.61305 0 4.32387 0.948212 2.63604 2.63604C0.948212 4.32387 0 6.61305 0 9V27C0 29.3869 0.948212 31.6761 2.63604 33.364C4.32387 35.0518 6.61305 36 9 36H30C32.3869 36 34.6761 35.0518 36.364 33.364C38.0518 31.6761 39 29.3869 39 27V9C39 6.61305 38.0518 4.32387 36.364 2.63604C34.6761 0.948212 32.3869 0 30 0ZM6 9C6 8.20435 6.31607 7.44129 6.87868 6.87868C7.44129 6.31607 8.20435 6 9 6H30C30.7957 6 31.5587 6.31607 32.1213 6.87868C32.6839 7.44129 33 8.20435 33 9V27C33 27.7957 32.6839 28.5587 32.1213 29.1213C31.5587 29.6839 30.7957 30 30 30H9C8.20435 30 7.44129 29.6839 6.87868 29.1213C6.31607 28.5587 6 27.7957 6 27V9Z" fill="black"/>
<path fill-rule="evenodd" clip-rule="evenodd" d="M46.3021 3.52801L35.8981 10.671C35.5006 10.9439 35.1747 11.3086 34.948 11.7342C34.7214 12.1599 34.6007 12.6338 34.5961 13.116L34.5001 22.761C34.4954 23.2528 34.6117 23.7383 34.8388 24.1746C35.0658 24.6109 35.3966 24.9846 35.8021 25.263L46.3021 32.472C46.7526 32.7813 47.2789 32.9616 47.8243 32.9936C48.3698 33.0257 48.9136 32.9081 49.3971 32.6537C49.8806 32.3993 50.2855 32.0176 50.568 31.55C50.8505 31.0823 50.9999 30.5464 51.0001 30V6.00001C50.9999 5.45364 50.8505 4.9177 50.568 4.45004C50.2855 3.98237 49.8806 3.60074 49.3971 3.34632C48.9136 3.0919 48.3698 2.97436 47.8243 3.00638C47.2789 3.0384 46.7526 3.21876 46.3021 3.52801ZM45.0001 24.3L40.5151 21.222L40.5811 14.733L45.0001 11.7V24.3Z" fill="black"/>
</svg>
