<svg width="35" height="35" viewBox="0 0 35 35" fill="none" xmlns="http://www.w3.org/2000/svg">
<path d="M25.0229 9.98047C24.4542 9.4116 24.1212 8.64901 24.0905 7.84522C24.0599 7.04142 24.3338 6.25568 24.8574 5.64512C24.9007 5.59434 24.9233 5.52907 24.9205 5.46238C24.9177 5.3957 24.8898 5.33254 24.8424 5.28555L21.8257 2.26543C21.7758 2.21559 21.7082 2.18759 21.6377 2.18759C21.5672 2.18759 21.4996 2.21559 21.4497 2.26543L16.6413 7.07383C16.4639 7.2512 16.3303 7.46746 16.251 7.70547C16.172 7.94403 16.0385 8.16091 15.8611 8.3389C15.6837 8.51688 15.4673 8.65109 15.229 8.73086C14.9908 8.81023 14.7744 8.94385 14.5967 9.12119L2.26534 21.4498C2.2155 21.4997 2.1875 21.5673 2.1875 21.6378C2.1875 21.7083 2.2155 21.7759 2.26534 21.8258L5.28204 24.8425C5.32903 24.8899 5.39219 24.9178 5.45887 24.9206C5.52556 24.9234 5.59083 24.9008 5.64161 24.8575C6.25204 24.3333 7.03796 24.0589 7.84203 24.0894C8.6461 24.1199 9.40898 24.453 9.97795 25.022C10.5469 25.5909 10.88 26.3538 10.9105 27.1579C10.941 27.962 10.6666 28.7479 10.1424 29.3583C10.0991 29.4091 10.0766 29.4744 10.0794 29.541C10.0821 29.6077 10.11 29.6709 10.1574 29.7179L13.1741 32.7346C13.224 32.7844 13.2916 32.8124 13.3621 32.8124C13.4326 32.8124 13.5002 32.7844 13.5501 32.7346L25.8821 20.4032C26.0595 20.2255 26.1931 20.0091 26.2725 19.7709C26.3514 19.5323 26.4849 19.3155 26.6623 19.1375C26.8397 18.9595 27.0561 18.8253 27.2944 18.7455C27.5325 18.6662 27.7487 18.5326 27.9261 18.3552L32.7345 13.5468C32.7843 13.4969 32.8123 13.4293 32.8123 13.3588C32.8123 13.2883 32.7843 13.2207 32.7345 13.1708L29.7178 10.1541C29.6708 10.1067 29.6076 10.0788 29.5409 10.076C29.4743 10.0732 29.409 10.0958 29.3582 10.1391C28.7485 10.6636 27.9632 10.9387 27.1595 10.9093C26.3557 10.8799 25.5926 10.5482 25.0229 9.98047Z" stroke="white" stroke-miterlimit="10"/>
<path d="M17.124 9.60038L15.9954 8.47177M20.1332 12.6096L19.3805 11.8576M23.1423 15.6194L22.3904 14.8668M26.5282 19.0046L25.3996 17.876" stroke="white" stroke-miterlimit="10" stroke-linecap="round"/>
</svg>
