<svg width="20" height="15" viewBox="0 0 20 15" fill="none" xmlns="http://www.w3.org/2000/svg">
<path d="M19.3359 13.1524H0.195312C0.0878906 13.1524 0 13.2403 0 13.3478V14.7149C0 14.8224 0.0878906 14.9103 0.195312 14.9103H19.3359C19.4434 14.9103 19.5312 14.8224 19.5312 14.7149V13.3478C19.5312 13.2403 19.4434 13.1524 19.3359 13.1524ZM1.31104 10.0958L2.28027 11.0602C2.35596 11.1358 2.48047 11.1358 2.55615 11.0602L8.28613 5.34971L10.6689 7.7252C10.8157 7.87065 11.014 7.95225 11.2207 7.95225C11.4274 7.95225 11.6257 7.87065 11.7725 7.7252L18.2227 1.29941C18.2983 1.22373 18.2983 1.09922 18.2227 1.02354L17.2534 0.0567384C17.2167 0.0203902 17.1671 0 17.1155 0C17.0638 0 17.0142 0.0203902 16.9775 0.0567384L11.2231 5.79404L8.83789 3.41855C8.69109 3.2731 8.49279 3.1915 8.28613 3.1915C8.07948 3.1915 7.88118 3.2731 7.73437 3.41855L1.31104 9.81992C1.29277 9.83795 1.27827 9.85943 1.26838 9.88311C1.25848 9.90679 1.25338 9.9322 1.25338 9.95786C1.25338 9.98353 1.25848 10.0089 1.26838 10.0326C1.27827 10.0563 1.29277 10.0778 1.31104 10.0958Z" fill="white"/>
</svg>
