<svg width="20" height="20" viewBox="0 0 20 20" fill="none" xmlns="http://www.w3.org/2000/svg">
<path d="M15.8334 3.33329H14.1667V2.49996C14.1667 2.27895 14.0789 2.06698 13.9226 1.9107C13.7663 1.75442 13.5544 1.66663 13.3334 1.66663C13.1123 1.66663 12.9004 1.75442 12.7441 1.9107C12.5878 2.06698 12.5 2.27895 12.5 2.49996V3.33329H7.50002V2.49996C7.50002 2.27895 7.41222 2.06698 7.25594 1.9107C7.09966 1.75442 6.8877 1.66663 6.66669 1.66663C6.44567 1.66663 6.23371 1.75442 6.07743 1.9107C5.92115 2.06698 5.83335 2.27895 5.83335 2.49996V3.33329H4.16669C3.50365 3.33329 2.86776 3.59668 2.39892 4.06553C1.93008 4.53437 1.66669 5.17025 1.66669 5.83329V15.8333C1.66669 16.4963 1.93008 17.1322 2.39892 17.6011C2.86776 18.0699 3.50365 18.3333 4.16669 18.3333H15.8334C16.4964 18.3333 17.1323 18.0699 17.6011 17.6011C18.07 17.1322 18.3334 16.4963 18.3334 15.8333V5.83329C18.3334 5.17025 18.07 4.53437 17.6011 4.06553C17.1323 3.59668 16.4964 3.33329 15.8334 3.33329ZM16.6667 15.8333C16.6667 16.0543 16.5789 16.2663 16.4226 16.4225C16.2663 16.5788 16.0544 16.6666 15.8334 16.6666H4.16669C3.94567 16.6666 3.73371 16.5788 3.57743 16.4225C3.42115 16.2663 3.33335 16.0543 3.33335 15.8333V9.99996H16.6667V15.8333ZM16.6667 8.33329H3.33335V5.83329C3.33335 5.61228 3.42115 5.40032 3.57743 5.24404C3.73371 5.08776 3.94567 4.99996 4.16669 4.99996H5.83335V5.83329C5.83335 6.05431 5.92115 6.26627 6.07743 6.42255C6.23371 6.57883 6.44567 6.66663 6.66669 6.66663C6.8877 6.66663 7.09966 6.57883 7.25594 6.42255C7.41222 6.26627 7.50002 6.05431 7.50002 5.83329V4.99996H12.5V5.83329C12.5 6.05431 12.5878 6.26627 12.7441 6.42255C12.9004 6.57883 13.1123 6.66663 13.3334 6.66663C13.5544 6.66663 13.7663 6.57883 13.9226 6.42255C14.0789 6.26627 14.1667 6.05431 14.1667 5.83329V4.99996H15.8334C16.0544 4.99996 16.2663 5.08776 16.4226 5.24404C16.5789 5.40032 16.6667 5.61228 16.6667 5.83329V8.33329Z" fill="white"/>
</svg>
