<svg width="19" height="19" viewBox="0 0 19 19" fill="none" xmlns="http://www.w3.org/2000/svg">
<g clip-path="url(#clip0_23_2863)">
<path d="M10.8571 14.25H8.14291V11.5357H10.8572L10.8571 14.25ZM13.5714 11.9341L12.0155 10.3773C11.9526 10.3142 11.8778 10.2642 11.7955 10.2301C11.7131 10.196 11.6248 10.1785 11.5357 10.1786H7.46429C7.08949 10.1786 6.78571 10.4824 6.78571 10.8571V14.9286C6.78571 15.1052 6.85321 15.2661 6.96376 15.3868L8.54165 16.9643H6.10709C5.73232 16.9643 5.42854 16.6605 5.42854 16.2857V9.50001C5.42854 9.1252 5.73232 8.82143 6.10709 8.82143H12.8929C13.2677 8.82143 13.5715 9.12524 13.5715 9.50001L13.5714 11.9341ZM17.6429 14.25L16.2857 12.8929L16.2875 10.1768L17.6429 8.82139V14.25ZM10.177 3.5755C9.27434 4.09595 9.27434 5.40406 10.177 5.92452C11.0797 6.44494 12.2143 5.79085 12.2143 4.75001C12.2143 3.70916 11.0797 3.05507 10.177 3.5755ZM17.6429 7.4643L14.9286 10.1786V8.82143C14.9286 8.17201 14.4724 7.62947 13.863 7.49603C14.5248 6.77202 14.9286 5.80822 14.9286 4.75004C14.9286 2.50144 13.1058 0.678589 10.8572 0.678589C8.71284 0.678589 6.95571 2.33638 6.7974 4.44026C6.0757 3.78928 5.11991 3.39288 4.07146 3.39288C1.82285 3.39288 0 5.21569 0 7.46433C0 9.7129 1.82285 11.5357 4.07142 11.5357H2.71429V14.25H4.07142V16.9643C4.07142 17.7138 4.67901 18.3214 5.42858 18.3214H13.5714C14.321 18.3214 14.9286 17.7138 14.9286 16.9643V15.6071L17.6429 18.3214H19V7.4643H17.6429ZM5.42858 7.4643C5.42858 6.42345 4.31029 5.79861 3.39131 6.28979C2.37741 6.83177 2.4438 8.71674 4.07146 8.82143V10.1785C1.07673 10.083 0.470064 6.38282 2.71121 5.11535C4.52519 4.08942 6.78571 5.38261 6.78571 7.46433L5.42858 7.4643ZM9.49699 7.09899C7.69155 6.05815 7.69155 3.44186 9.49699 2.40102C11.3024 1.36014 13.5715 2.66828 13.5715 4.75001C13.5715 6.83173 11.3024 8.13987 9.49696 7.09903" fill="white"/>
</g>
<defs>
<clipPath id="clip0_23_2863">
<rect width="19" height="19" fill="white"/>
</clipPath>
</defs>
</svg>
